<?xml version="1.0" standalone="no"?>
<!DOCTYPE svg PUBLIC "-//W3C//DTD SVG 20010904//EN"
 "http://www.w3.org/TR/2001/REC-SVG-20010904/DTD/svg10.dtd">
<svg version="1.0" xmlns="http://www.w3.org/2000/svg"
 width="131.000000pt" height="180.000000pt" viewBox="0 0 131.000000 180.000000"
 preserveAspectRatio="xMidYMid meet">
<metadata>
Created by potrace 1.16, written by Peter Selinger 2001-2019
</metadata>
<g transform="translate(0.000000,180.000000) scale(0.100000,-0.100000)"
fill="#000000" stroke="none">
<path d="M0 900 l0 -900 655 0 655 0 0 900 0 900 -655 0 -655 0 0 -900z m1110
507 c0 -17 -80 -908 -83 -926 -1 -9 -70 -33 -192 -67 l-190 -52 -185 50 c-102
28 -189 54 -193 58 -8 7 -87 843 -87 918 l0 32 465 0 c370 0 465 -3 465 -13z"/>
</g>
</svg>
